<svg height="540" width="600" xmlns="http://www.w3.org/2000/svg">
<style>
 .top_lang_chart text {
    font: 400 11px 'Segoe UI', Ubuntu, Sans-Serif;
}
.title {
    font: 600 18px 'Segoe UI', Ubuntu, Sans-Serif;
    fill: #2f80ed;
}
.star path {
    fill: #4c71f2;
}
.star text {
    font: 600 14px 'Segoe UI', Ubuntu, "Helvetica Neue", Sans-Serif;
    fill: #434d58;
}
.footer > text {
    font: 200 11px 'Segoe UI', Ubuntu, Sans-Serif;
    fill: gray;
}
.footer > a > text {
    font: 200 11px 'Segoe UI', Ubuntu, Sans-Serif;
    fill: gray;
    text-decoration: underline;
}
</style>
<svg class="star" x="20" xmlns="http://www.w3.org/2000/svg" y="10">
<text width="100" x="25" y="13">
Total Stars Earned: 3
</text>
<svg height="16" viewBox="0 0 16 16" width="16" xmlns="http://www.w3.org/2000/svg">
<path d="M8 .25a.75.75 0 0 1 .673.418l1.882 3.815 4.21.612a.75.75 0 0 1 .416 1.279l-3.046 2.97.719 4.192a.751.751 0 0 1-1.088.791L8 12.347l-3.766 1.98a.75.75 0 0 1-1.088-.79l.72-4.194L.818 6.374a.75.75 0 0 1 .416-1.28l4.21-.611L7.327.668A.75.75 0 0 1 8 .25Zm0 2.445L6.615 5.5a.75.75 0 0 1-.564.41l-3.097.45 2.24 2.184a.75.75 0 0 1 .216.664l-.528 3.084 2.769-1.456a.75.75 0 0 1 .698 0l2.77 1.456-.53-3.084a.75.75 0 0 1 .216-.664l2.24-2.183-3.096-.45a.75.75 0 0 1-.564-.41L8 2.694Z"/>
</svg>
</svg>
<svg x="20" xmlns="http://www.w3.org/2000/svg" y="30">
<text class="title" x="0" y="30">
Most Used Languages
</text>
<svg class="top_lang_chart" height="504" viewBox="0 0 300 504" width="300" x="0" xmlns="http://www.w3.org/2000/svg" y="50">
<svg width="250" xmlns="http://www.w3.org/2000/svg" y="0">
<text x="0" y="20">
TypeScript: 44.4% (275KB)
</text>
<rect class="whole" fill="#ddd" height="8" rx="5" ry="5" width="205" x="0" y="27.5"/>
<rect class="ratio" fill="#3178c6" height="8" rx="5" ry="5" width="44.40405444764668%" x="0" y="27.5"/>
</svg>
<svg width="250" xmlns="http://www.w3.org/2000/svg" y="40">
<text x="0" y="20">
MQL5: 17.0% (105KB)
</text>
<rect class="whole" fill="#ddd" height="8" rx="5" ry="5" width="205" x="0" y="27.5"/>
<rect class="ratio" fill="#4A76B8" height="8" rx="5" ry="5" width="17.04908430567021%" x="0" y="27.5"/>
</svg>
<svg width="250" xmlns="http://www.w3.org/2000/svg" y="80">
<text x="0" y="20">
Go: 15.2% (94KB)
</text>
<rect class="whole" fill="#ddd" height="8" rx="5" ry="5" width="205" x="0" y="27.5"/>
<rect class="ratio" fill="#00ADD8" height="8" rx="5" ry="5" width="15.218982976662307%" x="0" y="27.5"/>
</svg>
<svg width="250" xmlns="http://www.w3.org/2000/svg" y="120">
<text x="0" y="20">
Rust: 6.9% (42KB)
</text>
<rect class="whole" fill="#ddd" height="8" rx="5" ry="5" width="205" x="0" y="27.5"/>
<rect class="ratio" fill="#dea584" height="8" rx="5" ry="5" width="6.8680695351610215%" x="0" y="27.5"/>
</svg>
<svg width="250" xmlns="http://www.w3.org/2000/svg" y="160">
<text x="0" y="20">
Elm: 4.3% (26KB)
</text>
<rect class="whole" fill="#ddd" height="8" rx="5" ry="5" width="205" x="0" y="27.5"/>
<rect class="ratio" fill="#60B5CC" height="8" rx="5" ry="5" width="4.282948823782145%" x="0" y="27.5"/>
</svg>
<svg width="250" xmlns="http://www.w3.org/2000/svg" y="200">
<text x="0" y="20">
JavaScript: 3.8% (23KB)
</text>
<rect class="whole" fill="#ddd" height="8" rx="5" ry="5" width="205" x="0" y="27.5"/>
<rect class="ratio" fill="#f1e05a" height="8" rx="5" ry="5" width="3.7977861132432524%" x="0" y="27.5"/>
</svg>
<svg width="250" xmlns="http://www.w3.org/2000/svg" y="240">
<text x="0" y="20">
Python: 3.7% (22KB)
</text>
<rect class="whole" fill="#ddd" height="8" rx="5" ry="5" width="205" x="0" y="27.5"/>
<rect class="ratio" fill="#3572A5" height="8" rx="5" ry="5" width="3.6680875577890744%" x="0" y="27.5"/>
</svg>
<svg width="250" xmlns="http://www.w3.org/2000/svg" y="280">
<text x="0" y="20">
Shell: 1.9% (11KB)
</text>
<rect class="whole" fill="#ddd" height="8" rx="5" ry="5" width="205" x="0" y="27.5"/>
<rect class="ratio" fill="#89e051" height="8" rx="5" ry="5" width="1.919892636630026%" x="0" y="27.5"/>
</svg>
<svg width="250" xmlns="http://www.w3.org/2000/svg" y="320">
<text x="0" y="20">
C#: 1.8% (11KB)
</text>
<rect class="whole" fill="#ddd" height="8" rx="5" ry="5" width="205" x="0" y="27.5"/>
<rect class="ratio" fill="#178600" height="8" rx="5" ry="5" width="1.8038719685376408%" x="0" y="27.5"/>
</svg>
<svg width="250" xmlns="http://www.w3.org/2000/svg" y="360">
<text x="0" y="20">
CSS/SCSS: 0.8% (5KB)
</text>
<rect class="whole" fill="#ddd" height="8" rx="5" ry="5" width="205" x="0" y="27.5"/>
<rect class="ratio" fill="#563d7c" height="8" rx="5" ry="5" width="0.8298454720560761%" x="0" y="27.5"/>
</svg>
</svg>
</svg>
<svg class="footer" x="20" xmlns="http://www.w3.org/2000/svg" y="500">
<text x="0" y="20">
Generated by
</text>
<a href="https://github.com/kengo-k/github-stats-generator">
<text x="80" y="20">
github-stats-generator
</text>
</a>
<text x="210" y="20">
at 2023-07-27
</text>
</svg>
</svg>