<svg height="500" width="300" xmlns="http://www.w3.org/2000/svg">
<style>
 .top_lang_chart text {
    font: 400 11px 'Segoe UI', Ubuntu, Sans-Serif;
}
.title {
    font: 600 18px 'Segoe UI', Ubuntu, Sans-Serif;
    fill: #2f80ed;
}
.star path {
    fill: #4c71f2;
}
.star text {
    font: 600 14px 'Segoe UI', Ubuntu, "Helvetica Neue", Sans-Serif;
    fill: #434d58;
}
</style>
<svg class="star" x="20" xmlns="http://www.w3.org/2000/svg" y="10">
<text width="100" x="25" y="13">
Total Stars Earned: 3
</text>
<svg height="16" viewBox="0 0 16 16" width="16" xmlns="http://www.w3.org/2000/svg">
<path d="M8 .25a.75.75 0 0 1 .673.418l1.882 3.815 4.21.612a.75.75 0 0 1 .416 1.279l-3.046 2.97.719 4.192a.751.751 0 0 1-1.088.791L8 12.347l-3.766 1.98a.75.75 0 0 1-1.088-.79l.72-4.194L.818 6.374a.75.75 0 0 1 .416-1.28l4.21-.611L7.327.668A.75.75 0 0 1 8 .25Zm0 2.445L6.615 5.5a.75.75 0 0 1-.564.41l-3.097.45 2.24 2.184a.75.75 0 0 1 .216.664l-.528 3.084 2.769-1.456a.75.75 0 0 1 .698 0l2.77 1.456-.53-3.084a.75.75 0 0 1 .216-.664l2.24-2.183-3.096-.45a.75.75 0 0 1-.564-.41L8 2.694Z"/>
</svg>
</svg>
<svg x="20" xmlns="http://www.w3.org/2000/svg" y="30">
<text class="title" x="0" y="30">
Most Used Languages
</text>
<svg class="top_lang_chart" height="280" viewBox="0 0 300 280" width="300" x="0" xmlns="http://www.w3.org/2000/svg" y="50">
<svg width="250" xmlns="http://www.w3.org/2000/svg" y="0">
<text x="0" y="20">
TypeScript: 48.3% (265KB)
</text>
<rect class="whole" fill="#ddd" height="8" rx="5" ry="5" width="205" x="0" y="27.5"/>
<rect class="ratio" fill="#3178c6" height="8" rx="5" ry="5" width="48.292194188906095%" x="0" y="27.5"/>
</svg>
<svg width="250" xmlns="http://www.w3.org/2000/svg" y="40">
<text x="0" y="20">
JavaScript: 17.4% (95KB)
</text>
<rect class="whole" fill="#ddd" height="8" rx="5" ry="5" width="205" x="0" y="27.5"/>
<rect class="ratio" fill="#f1e05a" height="8" rx="5" ry="5" width="17.412514800983697%" x="0" y="27.5"/>
</svg>
<svg width="250" xmlns="http://www.w3.org/2000/svg" y="80">
<text x="0" y="20">
Go: 17.2% (94KB)
</text>
<rect class="whole" fill="#ddd" height="8" rx="5" ry="5" width="205" x="0" y="27.5"/>
<rect class="ratio" fill="#00ADD8" height="8" rx="5" ry="5" width="17.228709354221696%" x="0" y="27.5"/>
</svg>
<svg width="250" xmlns="http://www.w3.org/2000/svg" y="120">
<text x="0" y="20">
Rust: 7.1% (38KB)
</text>
<rect class="whole" fill="#ddd" height="8" rx="5" ry="5" width="205" x="0" y="27.5"/>
<rect class="ratio" fill="#dea584" height="8" rx="5" ry="5" width="7.076054285454049%" x="0" y="27.5"/>
</svg>
<svg width="250" xmlns="http://www.w3.org/2000/svg" y="160">
<text x="0" y="20">
Python: 4.2% (22KB)
</text>
<rect class="whole" fill="#ddd" height="8" rx="5" ry="5" width="205" x="0" y="27.5"/>
<rect class="ratio" fill="#3572A5" height="8" rx="5" ry="5" width="4.1524729028144645%" x="0" y="27.5"/>
</svg>
<svg width="250" xmlns="http://www.w3.org/2000/svg" y="200">
<text x="0" y="20">
Elm: 3.7% (20KB)
</text>
<rect class="whole" fill="#ddd" height="8" rx="5" ry="5" width="205" x="0" y="27.5"/>
<rect class="ratio" fill="#60B5CC" height="8" rx="5" ry="5" width="3.7145459513616905%" x="0" y="27.5"/>
</svg>
<svg width="250" xmlns="http://www.w3.org/2000/svg" y="240">
<text x="0" y="20">
C#: 2.0% (11KB)
</text>
<rect class="whole" fill="#ddd" height="8" rx="5" ry="5" width="205" x="0" y="27.5"/>
<rect class="ratio" fill="#178600" height="8" rx="5" ry="5" width="2.0420803351853536%" x="0" y="27.5"/>
</svg>
<svg width="250" xmlns="http://www.w3.org/2000/svg" y="280">
<text x="0" y="20">
Dart: 0.1% (0KB)
</text>
<rect class="whole" fill="#ddd" height="8" rx="5" ry="5" width="205" x="0" y="27.5"/>
<rect class="ratio" fill="#00B4AB" height="8" rx="5" ry="5" width="0.08142818107295746%" x="0" y="27.5"/>
</svg>
</svg>
</svg>
</svg>